<svg width="163" height="22" viewBox="0 0 163 22" fill="none" xmlns="http://www.w3.org/2000/svg">
<g clip-path="url(#clip0_13994_296140)">
<path d="M1.78764 10.991H-0.0117188V7.11598H1.78764V6.51904C1.78764 1.67527 6.15937 1.01588 8.52908 1.01588C9.02596 1.01257 9.52253 1.04119 10.0158 1.10157V5.2874C9.75075 5.24789 9.48316 5.22847 9.21524 5.22931C8.23956 5.22785 6.72972 5.40069 6.72972 6.66283V7.11598H9.44396V10.991H6.72972V21.6255H1.78764V10.991Z" fill="white"/>
<path d="M11.6426 6.86719H16.5847V15.5235C16.5847 16.8989 17.1275 17.4726 18.1553 17.4726C20.2702 17.4726 21.2705 15.6092 21.2705 13.4059V6.87009H26.2126V21.6294H21.4703V20.3368C21.4714 20.0305 21.4902 19.7245 21.5267 19.4203H21.4703C20.6698 20.9962 18.8415 21.9707 16.8698 21.9707C13.9558 21.9707 11.6426 20.5953 11.6426 16.44V6.86719Z" fill="white"/>
<path d="M30.842 16.468C30.842 16.468 32.4705 17.9582 34.5855 17.9582C35.3281 17.9582 36.0418 17.7578 36.0418 17.2712C36.0418 15.9815 29.157 15.8377 29.157 11.0259C29.157 8.24454 31.8133 6.52344 35.2137 6.52344C38.6416 6.52344 40.3845 8.21549 40.3845 8.21549L38.6995 11.739C37.6964 10.973 36.4743 10.5508 35.2137 10.535C34.4711 10.535 33.7575 10.7354 33.7575 11.251C33.7575 12.3694 40.6422 12.5422 40.6422 17.3003C40.6422 19.8216 38.4129 21.9712 34.6144 21.9712C30.9289 21.9712 28.7285 19.7926 28.7285 19.7926L30.842 16.468Z" fill="white"/>
<path d="M43.3301 6.86545H48.2722V21.6277H43.3301V6.86545ZM43.3865 1.13281H48.2157V5.00202H43.3865V1.13281Z" fill="white"/>
</g>
<g clip-path="url(#clip1_13994_296140)">
<path d="M56.8132 8.20273C56.8132 7.88304 56.9377 7.57644 57.1593 7.35039C57.381 7.12434 57.6816 6.99734 57.995 6.99734V9.40374C57.6823 9.40374 57.3824 9.27735 57.1608 9.05224C56.9393 8.82713 56.8143 8.52166 56.8132 8.20273ZM52.3013 15.435C52.302 15.2102 52.241 14.9896 52.1252 14.7984C52.0094 14.6071 51.8433 14.4527 51.6459 14.3527C51.4484 14.2527 51.2275 14.2111 51.0081 14.2325C50.7886 14.254 50.5795 14.3377 50.4043 14.4742C50.4255 15.1907 50.5447 15.9007 50.7583 16.5836C50.8747 16.6211 50.996 16.6402 51.118 16.6404C51.2733 16.6406 51.4271 16.6096 51.5707 16.5491C51.7143 16.4886 51.8447 16.3998 51.9546 16.2879C52.0645 16.1759 52.1517 16.043 52.2112 15.8966C52.2706 15.7503 52.3013 15.5934 52.3013 15.435ZM54.5579 10.6499C54.2467 10.6499 53.948 10.7751 53.7267 10.9983C53.5055 11.2215 53.3795 11.5248 53.3761 11.8422V11.8553C53.3761 12.0937 53.4454 12.3267 53.5753 12.5249C53.7051 12.7232 53.8897 12.8777 54.1057 12.9689C54.3216 13.0601 54.5592 13.084 54.7885 13.0375C55.0178 12.991 55.2283 12.8762 55.3936 12.7076C55.5589 12.539 55.6715 12.3242 55.7171 12.0904C55.7627 11.8566 55.7393 11.6142 55.6498 11.394C55.5604 11.1737 55.4089 10.9855 55.2145 10.853C55.0202 10.7206 54.7917 10.6499 54.5579 10.6499ZM51.118 13.9006C51.3244 13.9002 51.5286 13.9438 51.7175 14.0287C52.0029 14.1566 52.2424 14.3718 52.4026 14.6445L52.4169 14.6693C52.4169 14.6489 52.4297 14.6285 52.4369 14.6081C52.5528 14.2827 52.7378 13.9873 52.9786 13.7432C53.2194 13.4991 53.5101 13.3122 53.83 13.196C53.5956 13.0632 53.4002 12.8688 53.2642 12.6331C53.1282 12.3973 53.0564 12.1288 53.0563 11.8553V11.8189V11.7825C53.0563 11.3624 52.927 10.9529 52.6869 10.6116C52.4467 10.2703 52.1077 10.0143 51.7175 9.87978C50.9634 11.0053 50.5166 12.3152 50.4229 13.675C50.4143 13.7871 50.4043 13.9006 50.4043 14.0156C50.4043 14.0389 50.4043 14.0622 50.4043 14.0855C50.4328 14.0695 50.4628 14.0549 50.4928 14.0418C50.6886 13.949 50.902 13.9008 51.118 13.9006ZM57.995 9.73857C57.479 9.74773 56.9871 9.96327 56.6253 10.3388C56.2635 10.7143 56.0609 11.2197 56.0609 11.7461C56.0609 11.783 56.0609 11.8194 56.0609 11.8553C56.0614 12.105 56.0016 12.351 55.8868 12.5715C55.7557 12.8246 55.558 13.0353 55.3159 13.18C55.6547 13.2953 55.9626 13.4895 56.2151 13.7473C56.4675 14.005 56.6577 14.3192 56.7703 14.6649C56.9359 14.3746 57.1901 14.1476 57.494 14.0186C57.6541 13.9508 57.8247 13.9123 57.9979 13.905L57.9965 11.8218L57.995 9.73857ZM56.5677 19.0876C56.4856 19.0931 56.4087 19.1303 56.3526 19.1915C56.2964 19.2527 56.2651 19.3334 56.2651 19.4173C56.2651 19.5011 56.2964 19.5819 56.3526 19.6431C56.4087 19.7043 56.4856 19.7415 56.5677 19.747H56.8974V19.3511C56.9031 19.2229 56.7332 19.0876 56.5734 19.0876H56.5677ZM56.7461 16.176C56.7408 16.1676 56.736 16.1588 56.7318 16.1498C56.6166 15.9288 56.5563 15.6824 56.5562 15.4321C56.5555 15.42 56.5555 15.4078 56.5562 15.3957C56.5552 14.8852 56.3636 14.3943 56.0205 14.0226C55.6773 13.651 55.2083 13.4265 54.7088 13.3948C54.2092 13.3631 53.7165 13.5266 53.3309 13.852C52.9452 14.1774 52.6955 14.6403 52.6324 15.1468C52.6249 15.2217 52.6211 15.2971 52.621 15.3724V15.3812C52.6217 15.387 52.6217 15.3928 52.621 15.3986V15.4627C52.6194 15.5363 52.6127 15.6098 52.601 15.6825C52.5741 15.8577 52.5161 16.0264 52.4297 16.1804C52.4211 16.1978 52.4115 16.2148 52.4012 16.2313C52.2679 16.4572 52.0798 16.6441 51.855 16.7742C51.6303 16.9042 51.3764 16.973 51.118 16.9738C51.0386 16.9734 50.9595 16.9671 50.881 16.9549C51.358 18.2542 52.1684 19.399 53.2275 20.2697C54.2865 21.1404 55.5555 21.705 56.9017 21.9045V20.1124H56.5734C56.398 20.1042 56.2325 20.0274 56.1112 19.898C55.99 19.7685 55.9223 19.5963 55.9223 19.4173C55.9223 19.2383 55.99 19.0661 56.1112 18.9366C56.2325 18.8072 56.398 18.7303 56.5734 18.7222C56.8974 18.7207 57.2557 18.9915 57.2557 19.3511V19.747H57.9893V16.9738C57.7338 16.9594 57.4861 16.8789 57.2696 16.7399C57.0531 16.6008 56.8749 16.4077 56.7518 16.1789L56.7461 16.176ZM57.2557 21.9423C57.4995 21.967 57.7443 21.9791 57.9893 21.9787V20.1124H57.2557V21.9423ZM53.259 11.0691C53.3921 10.8435 53.5799 10.6566 53.8043 10.5264C54.0287 10.3963 54.2823 10.3273 54.5404 10.3262C54.7986 10.325 55.0527 10.3917 55.2783 10.5198C55.5039 10.6479 55.6933 10.8331 55.8283 11.0575C55.9344 10.7094 56.1187 10.3912 56.3665 10.1284C56.6143 9.86561 56.9187 9.66533 57.2557 9.5435C56.9639 9.37791 56.7344 9.11805 56.6034 8.80483C56.4724 8.49161 56.4472 8.14283 56.5319 7.81343C56.6166 7.48404 56.8064 7.19274 57.0713 6.98543C57.3362 6.77811 57.6611 6.66656 57.995 6.66834V6.49219C56.8134 6.49133 55.648 6.77219 54.5918 7.31233C53.5356 7.85248 52.6177 8.63697 51.9116 9.60318C52.23 9.72947 52.5168 9.92658 52.7512 10.1802C52.9855 10.4338 53.1614 10.7375 53.2662 11.0691H53.259ZM56.886 15.3986C56.8853 15.4107 56.8853 15.4229 56.886 15.435C56.8865 15.7419 57.0016 16.037 57.2079 16.2604C57.4142 16.4838 57.6961 16.6186 57.9965 16.6375V14.234C57.7021 14.2513 57.4248 14.3806 57.2192 14.5961C57.0137 14.8117 56.8948 15.098 56.886 15.3986ZM59.1783 8.20273C59.1783 8.04443 59.1477 7.88769 59.0883 7.74145C59.029 7.5952 58.9419 7.46232 58.8322 7.35039C58.7224 7.23846 58.5921 7.14967 58.4487 7.0891C58.3053 7.02852 58.1517 6.99734 57.9965 6.99734V9.40374C58.3092 9.40374 58.6091 9.27735 58.8306 9.05224C59.0522 8.82713 59.1772 8.52166 59.1783 8.20273ZM63.6902 15.435C63.6902 15.7547 63.8147 16.0613 64.0364 16.2874C64.258 16.5134 64.5586 16.6404 64.8721 16.6404C64.9946 16.6405 65.1164 16.6213 65.2332 16.5836C65.4463 15.9006 65.565 15.1906 65.5858 14.4742C65.4104 14.3387 65.2015 14.2558 64.9825 14.2349C64.7635 14.2139 64.5431 14.2557 64.3461 14.3556C64.1491 14.4554 63.9833 14.6094 63.8675 14.8001C63.7516 14.9908 63.6902 15.2107 63.6902 15.435ZM62.6168 11.8422C62.6151 11.5211 62.4887 11.2139 62.2652 10.9878C62.0417 10.7617 61.7394 10.6352 61.4246 10.6361C61.1099 10.6369 60.8083 10.7651 60.586 10.9924C60.3637 11.2197 60.2389 11.5277 60.2389 11.8487C60.2389 12.1698 60.3637 12.4777 60.586 12.705C60.8083 12.9324 61.1099 13.0605 61.4246 13.0614C61.7394 13.0622 62.0417 12.9358 62.2652 12.7097C62.4887 12.4836 62.6151 12.1763 62.6168 11.8553V11.8422ZM62.938 11.7825C62.9372 11.7946 62.9372 11.8068 62.938 11.8189C62.9387 11.831 62.9387 11.8431 62.938 11.8553C62.9379 12.1288 62.8662 12.3973 62.7301 12.6331C62.5941 12.8688 62.3988 13.0632 62.1644 13.196C62.4828 13.3118 62.7723 13.4977 63.0123 13.7405C63.2524 13.9833 63.437 14.2771 63.5532 14.6009C63.5603 14.6212 63.5675 14.6416 63.5732 14.662L63.5874 14.6373C63.7488 14.3677 63.9875 14.1553 64.2712 14.0287C64.4647 13.9421 64.6742 13.8985 64.8856 13.9007C65.097 13.903 65.3055 13.9511 65.4973 14.0418C65.5276 14.0546 65.5571 14.0692 65.5858 14.0855C65.5858 14.0622 65.5858 14.0389 65.5858 14.0156C65.5858 13.9006 65.5772 13.7871 65.5701 13.675C65.5253 13.0437 65.405 12.4203 65.2118 11.8189C64.9906 11.1306 64.6749 10.4777 64.274 9.87978C63.8843 10.0148 63.5459 10.271 63.3063 10.6122C63.0667 10.9535 62.9379 11.3627 62.938 11.7825ZM59.2268 14.6649C59.3398 14.3194 59.5301 14.0053 59.7825 13.7476C60.0349 13.4899 60.3426 13.2956 60.6813 13.18C60.4392 13.0353 60.2414 12.8246 60.1104 12.5715C59.9956 12.351 59.9358 12.105 59.9362 11.8553C59.9362 11.8194 59.9362 11.783 59.9362 11.7461C59.9363 11.2187 59.7328 10.7124 59.3699 10.3368C59.0069 9.9611 58.5135 9.74622 57.9965 9.73857L57.9965 11.8218L57.9965 13.905C58.1696 13.9123 58.3402 13.9508 58.5003 14.0186C58.8043 14.1476 59.0585 14.3746 59.224 14.6649H59.2268ZM59.745 19.418C59.745 19.3304 59.7108 19.2463 59.6501 19.1844C59.5893 19.1224 59.5069 19.0876 59.421 19.0876C59.2611 19.0876 59.0912 19.2229 59.0912 19.3511V19.747H59.421C59.5062 19.7463 59.5876 19.7113 59.6477 19.6497C59.7078 19.5882 59.7417 19.5049 59.7421 19.418H59.745ZM63.5989 16.2328C63.5885 16.2163 63.579 16.1993 63.5703 16.1818C63.482 16.0283 63.422 15.8596 63.3933 15.684C63.3816 15.6113 63.3749 15.5378 63.3733 15.4641V15.4001C63.3726 15.3943 63.3726 15.3884 63.3733 15.3826V15.3724C63.3718 15.298 63.3665 15.2236 63.3576 15.1497C63.2946 14.6433 63.0448 14.1803 62.6592 13.8549C62.2735 13.5295 61.7808 13.366 61.2813 13.3977C60.7817 13.4294 60.3127 13.6539 59.9696 14.0255C59.6264 14.3972 59.4349 14.8881 59.4338 15.3986C59.4345 15.4107 59.4345 15.4229 59.4338 15.435C59.4325 15.6857 59.3707 15.9321 59.254 16.1527C59.2498 16.1618 59.245 16.1705 59.2397 16.1789C59.1161 16.4085 58.937 16.6021 58.7194 16.7412C58.5018 16.8804 58.2529 16.9604 57.9965 16.9738V19.7543H58.7315V19.3511C58.7315 18.9915 59.0941 18.7222 59.4181 18.7222C59.5102 18.7179 59.6023 18.7327 59.6886 18.7656C59.775 18.7986 59.8539 18.8491 59.9206 18.9141C59.9873 18.9791 60.0404 19.0572 60.0766 19.1437C60.1129 19.2301 60.1316 19.3232 60.1316 19.4173C60.1316 19.5114 60.1129 19.6044 60.0766 19.6909C60.0404 19.7774 59.9873 19.8555 59.9206 19.9205C59.8539 19.9854 59.775 20.0359 59.6886 20.0689C59.6023 20.1019 59.5102 20.1167 59.4181 20.1124H59.0884V21.8987C60.4346 21.6991 61.7035 21.1345 62.7626 20.2639C63.8217 19.3932 64.632 18.2483 65.109 16.949C65.0311 16.9613 64.9524 16.9676 64.8735 16.968C64.6155 16.968 64.3619 16.9004 64.1369 16.7717C63.912 16.6429 63.7232 16.4574 63.5889 16.2328H63.5989ZM57.9965 21.9787C58.2448 21.9787 58.4889 21.9671 58.7315 21.9423V20.1124H57.9965V21.9787ZM59.5009 8.20273C59.5018 8.47724 59.4306 8.74699 59.2945 8.98384C59.1584 9.22069 58.9625 9.41597 58.7273 9.54932C59.0642 9.67115 59.3686 9.87143 59.6164 10.1342C59.8642 10.3971 60.0485 10.7152 60.1546 11.0633C60.2896 10.8389 60.479 10.6537 60.7046 10.5256C60.9302 10.3975 61.1843 10.3308 61.4425 10.332C61.7006 10.3331 61.9542 10.4021 62.1786 10.5323C62.4031 10.6624 62.5908 10.8493 62.7239 11.075C62.8286 10.7433 63.0046 10.4396 63.2389 10.186C63.4732 9.93241 63.76 9.73529 64.0785 9.60901C63.3731 8.64192 62.4557 7.85643 61.3997 7.31526C60.3437 6.77409 59.1783 6.49223 57.9965 6.49219V6.66834C58.3952 6.66911 58.7774 6.83101 59.0594 7.1186C59.3414 7.40619 59.5001 7.79602 59.5009 8.20273ZM59.1112 15.435C59.1119 15.4229 59.1119 15.4107 59.1112 15.3986C59.1025 15.0983 58.9838 14.8122 58.7785 14.5966C58.5732 14.3811 58.2963 14.2517 58.0022 14.234V16.6375C58.3022 16.6183 58.5838 16.4833 58.7898 16.2599C58.9958 16.0366 59.1107 15.7416 59.1112 15.435Z" fill="#FF951C"/>
</g>
<path d="M67.7051 6.86763H72.3785V8.15726C72.3774 8.46357 72.3589 8.76955 72.3229 9.07366H72.3785C73.0547 7.9278 74.4342 6.52344 76.9963 6.52344C79.9236 6.52344 82.2047 7.89876 82.2047 12.0552V21.6272H77.333V12.9716C77.333 11.5963 76.798 11.0255 75.7281 11.0255C74.2088 11.0255 73.2801 11.8824 72.8578 13.1444C72.656 13.7732 72.5595 14.432 72.5725 15.0934V21.6287H67.7051V6.86763Z" fill="white"/>
<path d="M92.4045 21.9312C90.983 21.9312 89.7567 21.6174 88.7258 20.9899C87.7013 20.356 86.9105 19.4723 86.3534 18.3389C85.8027 17.1991 85.5273 15.8736 85.5273 14.3625C85.5273 12.8513 85.8027 11.5194 86.3534 10.3668C86.9105 9.20778 87.6853 8.30491 88.6778 7.65818C89.6767 7.00504 90.8421 6.67847 92.174 6.67847C92.9424 6.67847 93.7012 6.80654 94.4504 7.06267C95.1996 7.3188 95.8815 7.73502 96.4962 8.31132C97.1109 8.88121 97.6008 9.6368 97.9658 10.5781C98.3308 11.5194 98.5133 12.6784 98.5133 14.0551V15.0156H87.141V13.0562H96.2081C96.2081 12.2237 96.0416 11.481 95.7086 10.8278C95.3821 10.1747 94.9146 9.65921 94.3063 9.28142C93.7044 8.90362 92.9936 8.71472 92.174 8.71472C91.2711 8.71472 90.4899 8.93884 89.8304 9.38707C89.1772 9.8289 88.6746 10.4052 88.3224 11.116C87.9702 11.8267 87.7941 12.5887 87.7941 13.402V14.7082C87.7941 15.8224 87.9862 16.7669 88.3704 17.5417C88.761 18.3101 89.3021 18.896 89.9937 19.2994C90.6852 19.6964 91.4888 19.8949 92.4045 19.8949C93 19.8949 93.5379 19.8117 94.0181 19.6452C94.5048 19.4723 94.9242 19.2162 95.2764 18.8768C95.6286 18.531 95.9007 18.102 96.0928 17.5897L98.2828 18.2044C98.0522 18.9472 97.6648 19.6004 97.1206 20.1639C96.5763 20.7209 95.9039 21.1564 95.1035 21.4701C94.3031 21.7775 93.4034 21.9312 92.4045 21.9312Z" fill="#FF951C"/>
<path d="M112.529 6.87057L107.073 21.6238H104.768L99.3122 6.87057H101.771L105.844 18.6271H105.997L110.07 6.87057H112.529Z" fill="#FF951C"/>
<path d="M120.13 21.9312C118.709 21.9312 117.483 21.6174 116.452 20.9899C115.427 20.356 114.636 19.4723 114.079 18.3389C113.529 17.1991 113.253 15.8736 113.253 14.3625C113.253 12.8513 113.529 11.5194 114.079 10.3668C114.636 9.20778 115.411 8.30491 116.404 7.65818C117.403 7.00504 118.568 6.67847 119.9 6.67847C120.668 6.67847 121.427 6.80654 122.176 7.06267C122.925 7.3188 123.607 7.73502 124.222 8.31132C124.837 8.88121 125.327 9.6368 125.692 10.5781C126.057 11.5194 126.239 12.6784 126.239 14.0551V15.0156H114.867V13.0562H123.934C123.934 12.2237 123.767 11.481 123.434 10.8278C123.108 10.1747 122.64 9.65921 122.032 9.28142C121.43 8.90362 120.719 8.71472 119.9 8.71472C118.997 8.71472 118.216 8.93884 117.556 9.38707C116.903 9.8289 116.4 10.4052 116.048 11.116C115.696 11.8267 115.52 12.5887 115.52 13.402V14.7082C115.52 15.8224 115.712 16.7669 116.096 17.5417C116.487 18.3101 117.028 18.896 117.719 19.2994C118.411 19.6964 119.215 19.8949 120.13 19.8949C120.726 19.8949 121.264 19.8117 121.744 19.6452C122.231 19.4723 122.65 19.2162 123.002 18.8768C123.354 18.531 123.627 18.102 123.819 17.5897L126.009 18.2044C125.778 18.9472 125.391 19.6004 124.846 20.1639C124.302 20.7209 123.63 21.1564 122.829 21.4701C122.029 21.7775 121.129 21.9312 120.13 21.9312Z" fill="#FF951C"/>
<path d="M130.906 12.7488V21.6238H128.64V6.87057H130.83V9.17576H131.022C131.367 8.42658 131.893 7.82466 132.597 7.37003C133.301 6.90899 134.211 6.67847 135.325 6.67847C136.324 6.67847 137.198 6.88338 137.947 7.29319C138.696 7.6966 139.279 8.31132 139.695 9.13734C140.111 9.95697 140.319 10.9943 140.319 12.2494V21.6238H138.053V12.403C138.053 11.244 137.752 10.3412 137.15 9.69443C136.548 9.04129 135.722 8.71472 134.672 8.71472C133.948 8.71472 133.301 8.87161 132.731 9.18537C132.168 9.49913 131.723 9.95697 131.396 10.5589C131.07 11.1608 130.906 11.8908 130.906 12.7488Z" fill="#FF951C"/>
<path d="M149.83 6.87057V8.79156H142.184V6.87057H149.83ZM144.413 3.33594H146.68V17.3976C146.68 18.038 146.772 18.5182 146.958 18.8384C147.15 19.1521 147.394 19.3634 147.688 19.4723C147.989 19.5748 148.306 19.626 148.639 19.626C148.889 19.626 149.094 19.6132 149.254 19.5876C149.414 19.5555 149.542 19.5299 149.638 19.5107L150.099 21.547C149.945 21.6046 149.731 21.6622 149.455 21.7199C149.18 21.7839 148.831 21.8159 148.408 21.8159C147.768 21.8159 147.141 21.6782 146.526 21.4029C145.918 21.1276 145.412 20.7081 145.008 20.1446C144.611 19.5812 144.413 18.8704 144.413 18.0123V3.33594Z" fill="#FF951C"/>
<path d="M162.378 10.1747L160.342 10.751C160.214 10.4116 160.025 10.0818 159.775 9.76167C159.532 9.4351 159.199 9.16616 158.776 8.95485C158.354 8.74354 157.813 8.63789 157.153 8.63789C156.25 8.63789 155.498 8.84599 154.896 9.26221C154.3 9.67202 154.003 10.1939 154.003 10.8278C154.003 11.3913 154.208 11.8363 154.617 12.1629C155.027 12.4895 155.668 12.7616 156.538 12.9793L158.728 13.5172C160.047 13.8374 161.03 14.3272 161.677 14.9868C162.324 15.6399 162.647 16.482 162.647 17.5129C162.647 18.3581 162.404 19.1137 161.917 19.7797C161.437 20.4456 160.765 20.9707 159.9 21.3549C159.036 21.7391 158.03 21.9312 156.884 21.9312C155.379 21.9312 154.134 21.6046 153.148 20.9515C152.162 20.2983 151.537 19.3442 151.275 18.0892L153.426 17.5513C153.631 18.3453 154.019 18.9408 154.589 19.3378C155.165 19.7348 155.917 19.9333 156.846 19.9333C157.902 19.9333 158.741 19.7092 159.362 19.261C159.99 18.8064 160.304 18.2621 160.304 17.6281C160.304 17.1159 160.124 16.6869 159.766 16.3411C159.407 15.9889 158.856 15.7264 158.114 15.5535L155.655 14.9772C154.304 14.657 153.311 14.1607 152.677 13.4884C152.05 12.8096 151.736 11.9612 151.736 10.9431C151.736 10.1106 151.97 9.37427 152.437 8.73394C152.911 8.0936 153.554 7.59094 154.368 7.22595C155.187 6.86096 156.116 6.67847 157.153 6.67847C158.613 6.67847 159.759 6.99864 160.592 7.63897C161.431 8.2793 162.026 9.12454 162.378 10.1747Z" fill="#FF951C"/>
<defs>
<clipPath id="clip0_13994_296140">
<rect width="48.2816" height="20.9524" fill="white" transform="translate(-0.00390625 1.01562)"/>
</clipPath>
<clipPath id="clip1_13994_296140">
<rect width="15.1829" height="15.4865" fill="white" transform="translate(50.4023 6.49219)"/>
</clipPath>
</defs>
</svg>
