<svg width="24" height="24" viewBox="0 0 24 24" fill="none" xmlns="http://www.w3.org/2000/svg">
<g clip-path="url(#clip0_4_35475)">
<path d="M10.1307 2.65088C10.1307 2.15545 10.3275 1.68031 10.6779 1.32999C11.0282 0.979666 11.5034 0.782857 11.9989 0.782857V4.51213C11.5046 4.51213 11.0304 4.31625 10.6802 3.96739C10.3301 3.61854 10.1325 3.14513 10.1307 2.65088ZM2.99859 13.859C2.99977 13.5106 2.90335 13.1688 2.72025 12.8723C2.53715 12.5759 2.2747 12.3366 1.9626 12.1817C1.65051 12.0267 1.30126 11.9622 0.954392 11.9955C0.607527 12.0288 0.276915 12.1585 0 12.37C0.0335369 13.4804 0.221872 14.5807 0.559556 15.639C0.743517 15.6971 0.935242 15.7267 1.12814 15.727C1.37366 15.7273 1.61684 15.6792 1.84376 15.5855C2.07068 15.4917 2.27689 15.3542 2.45061 15.1807C2.62433 15.0072 2.76214 14.8012 2.85617 14.5744C2.95019 14.3476 2.99859 14.1045 2.99859 13.859ZM6.56576 6.44332C6.07378 6.44329 5.60165 6.63731 5.25187 6.98325C4.9021 7.3292 4.70291 7.79913 4.69756 8.29104V8.31134C4.69756 8.6808 4.80713 9.04196 5.01241 9.34916C5.21769 9.65635 5.50946 9.89578 5.85083 10.0372C6.1922 10.1786 6.56783 10.2155 6.93023 10.1435C7.29262 10.0714 7.6255 9.89348 7.88678 9.63223C8.14805 9.37098 8.32597 9.03813 8.39806 8.67577C8.47014 8.31341 8.43315 7.93782 8.29175 7.59648C8.15035 7.25515 7.9109 6.9634 7.60367 6.75814C7.29645 6.55288 6.93526 6.44332 6.56576 6.44332ZM1.12814 11.4811C1.45441 11.4804 1.77721 11.5481 2.07577 11.6796C2.52703 11.8777 2.9055 12.2112 3.15879 12.634L3.18135 12.6723C3.18135 12.6407 3.20165 12.6091 3.21294 12.5776C3.39616 12.0731 3.68856 11.6154 4.06924 11.2371C4.44992 10.8588 4.90948 10.5693 5.41506 10.3892C5.04451 10.1833 4.73574 9.88205 4.52072 9.51672C4.30571 9.15139 4.19228 8.73523 4.19216 8.31134V8.25494V8.19854C4.19202 7.54749 3.98776 6.91287 3.60813 6.38394C3.22849 5.85501 2.69258 5.45839 2.07577 5.24986C0.883827 6.99411 0.177516 9.02408 0.0293316 11.1314C0.0157939 11.3051 0 11.4811 0 11.6593C0 11.6954 0 11.7315 0 11.7676C0.0451255 11.7428 0.0925073 11.7203 0.139889 11.6999C0.449484 11.5561 0.78673 11.4814 1.12814 11.4811ZM11.9989 5.03102C11.1831 5.04522 10.4055 5.37926 9.8337 5.96117C9.26186 6.54309 8.94149 7.32631 8.94162 8.14214C8.94162 8.19929 8.94162 8.25569 8.94162 8.31134C8.94236 8.69832 8.84782 9.07953 8.66635 9.42132C8.45918 9.81355 8.14661 10.1402 7.76384 10.3644C8.2995 10.543 8.78616 10.844 9.18524 11.2434C9.58432 11.6429 9.88485 12.1298 10.063 12.6655C10.3246 12.2157 10.7264 11.8639 11.2069 11.6639C11.46 11.5588 11.7296 11.4993 12.0034 11.4879L11.9989 5.03102ZM9.7426 19.5195C9.61293 19.5281 9.49138 19.5857 9.40259 19.6806C9.3138 19.7754 9.2644 19.9005 9.2644 20.0305C9.2644 20.1604 9.3138 20.2855 9.40259 20.3804C9.49138 20.4753 9.61293 20.5328 9.7426 20.5415H10.2638V19.9278C10.2728 19.7293 10.0043 19.5195 9.75162 19.5195H9.7426ZM10.0246 15.0073C10.0163 14.9943 10.0087 14.9807 10.0021 14.9667C9.81989 14.6243 9.72459 14.2424 9.72455 13.8545C9.72342 13.8357 9.72342 13.8169 9.72455 13.7981C9.7229 13.007 9.42011 12.2461 8.87768 11.6702C8.33526 11.0942 7.59389 10.7463 6.8042 10.6972C6.01452 10.6481 5.23575 10.9014 4.62612 11.4057C4.01649 11.91 3.62173 12.6275 3.52205 13.4123C3.51012 13.5285 3.50409 13.6452 3.504 13.762V13.7755C3.5051 13.7845 3.5051 13.7936 3.504 13.8026V13.9019C3.50151 14.016 3.49096 14.1299 3.47241 14.2425C3.42991 14.5141 3.33815 14.7756 3.20165 15.0141C3.18795 15.0412 3.17289 15.0675 3.15653 15.0931C2.94588 15.443 2.64854 15.7328 2.29323 15.9343C1.93792 16.1359 1.53664 16.2424 1.12814 16.2437C1.00274 16.2431 0.877549 16.2333 0.753596 16.2143C1.50755 18.2279 2.78852 20.0021 4.46265 21.3514C6.13678 22.7008 8.14262 23.5758 10.2706 23.8849V21.1077H9.75162C9.47441 21.095 9.21276 20.976 9.02108 20.7754C8.8294 20.5747 8.72244 20.3079 8.72244 20.0305C8.72244 19.753 8.8294 19.4862 9.02108 19.2856C9.21276 19.0849 9.47441 18.9659 9.75162 18.9532C10.2638 18.9509 10.8301 19.3706 10.8301 19.9278V20.5415H11.9898V16.2437C11.586 16.2214 11.1944 16.0967 10.8522 15.8812C10.5099 15.6656 10.2282 15.3664 10.0337 15.0119L10.0246 15.0073ZM10.8301 23.9436C11.2155 23.9818 11.6026 24.0006 11.9898 24V21.1077H10.8301V23.9436ZM4.51255 7.09307C4.72285 6.74335 5.0197 6.45369 5.37448 6.25201C5.72926 6.05034 6.13002 5.94344 6.53812 5.94163C6.94622 5.93981 7.34791 6.04314 7.70447 6.24166C8.06104 6.44018 8.36045 6.72718 8.57385 7.07502C8.74165 6.53548 9.03295 6.04248 9.42461 5.63519C9.81628 5.2279 10.2975 4.91752 10.8301 4.72871C10.3689 4.47211 10.0062 4.06938 9.79909 3.58397C9.59197 3.09856 9.55223 2.55805 9.68613 2.04758C9.82003 1.53711 10.12 1.08567 10.5387 0.76439C10.9574 0.443107 11.4711 0.270229 11.9989 0.272987V3.03233e-06C10.1311 -0.00132552 8.28892 0.433922 6.61929 1.27101C4.94966 2.10809 3.49885 3.32384 2.38263 4.82121C2.88598 5.01692 3.33936 5.3224 3.70977 5.7154C4.08017 6.1084 4.35827 6.57904 4.52383 7.09307H4.51255ZM10.2457 13.8026C10.2447 13.8214 10.2447 13.8402 10.2457 13.859C10.2466 14.3346 10.4285 14.7919 10.7546 15.1381C11.0807 15.4843 11.5264 15.6933 12.0011 15.7225V11.9977C11.5358 12.0246 11.0975 12.2249 10.7725 12.559C10.4476 12.8931 10.2596 13.3368 10.2457 13.8026ZM13.8693 2.65088C13.8693 2.40557 13.821 2.16266 13.7271 1.93602C13.6332 1.70938 13.4956 1.50345 13.3221 1.32999C13.1487 1.15653 12.9427 1.01893 12.7161 0.925052C12.4894 0.831175 12.2465 0.782857 12.0011 0.782857V4.51213C12.4954 4.51213 12.9696 4.31625 13.3198 3.96739C13.6699 3.61854 13.8675 3.14513 13.8693 2.65088ZM21.0014 13.859C21.0014 14.3544 21.1982 14.8296 21.5486 15.1799C21.8989 15.5302 22.3741 15.727 22.8696 15.727C23.0633 15.7271 23.2558 15.6975 23.4404 15.639C23.7774 14.5806 23.9649 13.4803 23.9977 12.37C23.7206 12.16 23.3903 12.0316 23.0441 11.9991C22.6979 11.9666 22.3495 12.0314 22.0382 12.1862C21.7268 12.3409 21.4648 12.5795 21.2816 12.875C21.0984 13.1705 21.0014 13.5113 21.0014 13.859ZM19.3047 8.29104C19.302 7.7935 19.1021 7.31734 18.7488 6.96695C18.3956 6.61656 17.9177 6.42055 17.4202 6.42189C16.9226 6.42324 16.4458 6.62183 16.0945 6.97412C15.7431 7.32641 15.5458 7.80365 15.5458 8.30119C15.5458 8.79873 15.7431 9.27597 16.0945 9.62826C16.4458 9.98055 16.9226 10.1791 17.4202 10.1805C17.9177 10.1818 18.3956 9.98582 18.7488 9.63543C19.1021 9.28504 19.302 8.80888 19.3047 8.31134V8.29104ZM19.8124 8.19854C19.8112 8.21732 19.8112 8.23616 19.8124 8.25494C19.8134 8.27372 19.8134 8.29256 19.8124 8.31134C19.8122 8.73523 19.6988 9.15139 19.4838 9.51672C19.2688 9.88205 18.96 10.1833 18.5895 10.3892C19.0928 10.5686 19.5504 10.8567 19.9298 11.233C20.3093 11.6093 20.6012 12.0645 20.7848 12.5663C20.7961 12.5979 20.8074 12.6294 20.8164 12.661L20.839 12.6227C21.094 12.205 21.4713 11.8758 21.9197 11.6796C22.2257 11.5454 22.5568 11.4777 22.891 11.4812C23.2251 11.4847 23.5547 11.5593 23.8579 11.6999C23.9058 11.7198 23.9525 11.7424 23.9977 11.7676C23.9977 11.7315 23.9977 11.6954 23.9977 11.6593C23.9977 11.4811 23.9842 11.3051 23.9729 11.1314C23.9023 10.1531 23.7121 9.18707 23.4066 8.25494C23.057 7.18823 22.5579 6.17647 21.9242 5.24986C21.3083 5.45915 20.7733 5.8561 20.3945 6.38497C20.0158 6.91383 19.8122 7.54804 19.8124 8.19854ZM13.946 12.6655C14.1246 12.13 14.4253 11.6434 14.8243 11.244C15.2234 10.8446 15.7098 10.5435 16.2452 10.3644C15.8624 10.1402 15.5498 9.81355 15.3427 9.42132C15.1612 9.07953 15.0667 8.69832 15.0674 8.31134C15.0674 8.25569 15.0674 8.19929 15.0674 8.14214C15.0675 7.32478 14.7459 6.54022 14.1721 5.95805C13.5983 5.37588 12.8185 5.04288 12.0011 5.03102V11.4879C12.2749 11.4993 12.5445 11.5588 12.7976 11.6639C13.2781 11.8639 13.6799 12.2157 13.9415 12.6655H13.946ZM14.7651 20.0316C14.7651 19.8958 14.7111 19.7655 14.6151 19.6695C14.519 19.5734 14.3887 19.5195 14.2529 19.5195C14.0002 19.5195 13.7317 19.7293 13.7317 19.9278V20.5415H14.2529C14.3876 20.5403 14.5163 20.4861 14.6113 20.3907C14.7064 20.2953 14.76 20.1662 14.7606 20.0316H14.7651ZM20.857 15.0953C20.8406 15.0698 20.8256 15.0434 20.8119 15.0164C20.6722 14.7784 20.5774 14.5169 20.5321 14.2448C20.5136 14.1321 20.503 14.0183 20.5005 13.9041V13.8049C20.4994 13.7959 20.4994 13.7868 20.5005 13.7778V13.762C20.498 13.6466 20.4897 13.5314 20.4757 13.4168C20.376 12.632 19.9813 11.9145 19.3716 11.4102C18.762 10.9059 17.9832 10.6526 17.1935 10.7017C16.4039 10.7508 15.6625 11.0987 15.1201 11.6747C14.5776 12.2506 14.2748 13.0115 14.2732 13.8026C14.2743 13.8214 14.2743 13.8402 14.2732 13.859C14.2711 14.2474 14.1734 14.6294 13.9889 14.9712C13.9823 14.9852 13.9747 14.9988 13.9663 15.0119C13.771 15.3677 13.4879 15.6677 13.1439 15.8833C12.8 16.0989 12.4066 16.2229 12.0011 16.2437V20.5527H13.1631V19.9278C13.1631 19.3706 13.7362 18.9532 14.2484 18.9532C14.394 18.9465 14.5395 18.9695 14.676 19.0206C14.8125 19.0717 14.9373 19.15 15.0427 19.2507C15.1481 19.3514 15.232 19.4724 15.2893 19.6064C15.3466 19.7404 15.3762 19.8847 15.3762 20.0305C15.3762 20.1762 15.3466 20.3205 15.2893 20.4545C15.232 20.5885 15.1481 20.7096 15.0427 20.8102C14.9373 20.9109 14.8125 20.9892 14.676 21.0403C14.5395 21.0915 14.394 21.1144 14.2484 21.1077H13.7272V23.8759C15.8551 23.5667 17.861 22.6917 19.5351 21.3424C21.2092 19.9931 22.4902 18.2189 23.2441 16.2053C23.1209 16.2243 22.9965 16.2341 22.8719 16.2346C22.4641 16.2347 22.0632 16.13 21.7075 15.9305C21.3519 15.731 21.0536 15.4434 20.8412 15.0953H20.857ZM12.0011 24C12.3937 24 12.7795 23.982 13.1631 23.9436V21.1077H12.0011V24ZM14.3792 2.65088C14.3807 3.0763 14.2681 3.49434 14.053 3.86139C13.8379 4.22845 13.5282 4.53108 13.1563 4.73774C13.6889 4.92655 14.1702 5.23692 14.5618 5.64421C14.9535 6.05151 15.2448 6.5445 15.4126 7.08404C15.626 6.73621 15.9254 6.4492 16.282 6.25068C16.6385 6.05217 17.0402 5.94884 17.4483 5.95065C17.8564 5.95247 18.2572 6.05936 18.612 6.26104C18.9668 6.46272 19.2636 6.75237 19.4739 7.10209C19.6395 6.58807 19.9176 6.11743 20.288 5.72442C20.6584 5.33142 21.1118 5.02595 21.6151 4.83024C20.5001 3.33151 19.05 2.11421 17.3808 1.27555C15.7115 0.436879 13.8693 7.31932e-05 12.0011 3.03233e-06V0.272987C12.6315 0.274179 13.2357 0.525089 13.6814 0.970772C14.1271 1.41646 14.378 2.02059 14.3792 2.65088ZM13.7633 13.859C13.7644 13.8402 13.7644 13.8214 13.7633 13.8026C13.7494 13.3371 13.5618 12.8937 13.2373 12.5597C12.9128 12.2256 12.4751 12.0252 12.0102 11.9977V15.7225C12.4844 15.6927 12.9296 15.4835 13.2552 15.1374C13.5808 14.7913 13.7625 14.3342 13.7633 13.859Z" fill="#FFB205"/>
</g>
<defs>
<clipPath id="clip0_4_35475">
<rect width="24" height="24" fill="white"/>
</clipPath>
</defs>
</svg>
